<svg xmlns="http://www.w3.org/2000/svg" viewBox="0 0 512 512" role="img" aria-label="YiboLabel logo">
  <defs>
    <linearGradient id="body" x1="0%" y1="0%" x2="100%" y2="100%">
      <stop offset="0%" stop-color="#2B88D8" />
      <stop offset="100%" stop-color="#163F68" />
    </linearGradient>
    <linearGradient id="lid" x1="0%" y1="0%" x2="100%" y2="100%">
      <stop offset="0%" stop-color="#31C4F1" />
      <stop offset="100%" stop-color="#169ADD" />
    </linearGradient>
  </defs>
  <g fill="none" fill-rule="evenodd" transform="matrix(1.56 0 0 1.56 -143.36 -126.2)">
    <rect x="98" y="142" width="316" height="164" rx="44" fill="url(#body)"/>
    <rect x="142" y="116" width="228" height="60" rx="22" fill="url(#lid)"/>
    <rect x="172" y="134" width="86" height="12" rx="6" fill="#E7F7FE"/>
    <rect x="172" y="152" width="120" height="10" rx="5" fill="#BFE9FA"/>
    <rect x="128" y="208" width="34" height="22" rx="11" fill="#83E1FB"/>
    <rect x="350" y="206" width="34" height="26" rx="13" fill="#83E1FB"/>
    <rect x="144" y="270" width="224" height="104" rx="20" fill="#A8EAFB"/>
    <g fill="#123E68">
      <rect x="170" y="290" width="12" height="48" rx="3"/>
      <rect x="190" y="290" width="20" height="48" rx="3"/>
      <rect x="218" y="290" width="10" height="48" rx="3"/>
      <rect x="236" y="290" width="26" height="48" rx="3"/>
      <rect x="270" y="290" width="12" height="48" rx="3"/>
      <rect x="290" y="290" width="22" height="48" rx="3"/>
      <rect x="320" y="290" width="18" height="48" rx="3"/>
    </g>
    <rect x="170" y="348" width="112" height="10" rx="5" fill="#EBF8FE"/>
  </g>
</svg>
